<svg width="125" height="20" viewBox="0 0 125 20" fill="none" xmlns="http://www.w3.org/2000/svg">
<path d="M4.61501 4.04061C4.78986 4.04061 4.87853 4.12803 4.93099 4.30413L8.44042 15.7092C8.49287 15.8852 8.42293 15.9727 8.22935 15.9727H7.45753C7.28143 15.9727 7.21149 15.8852 7.15904 15.7092L6.19363 12.5856H2.1759L1.22798 15.7092C1.17552 15.8852 1.10558 15.9727 0.929487 15.9727H0.210116C0.0340199 15.9727 -0.0359189 15.8852 0.0165352 15.7092L3.50848 4.30288C3.56093 4.12678 3.66584 4.03936 3.84194 4.03936H4.61376L4.61501 4.04061ZM4.64998 7.47885C4.5101 7.023 4.28155 5.9352 4.19413 5.32074C4.08922 6.02263 3.89564 6.98803 3.75576 7.44388L2.4569 11.5853H5.91388L4.64998 7.4801V7.47885Z" fill="#FF3C12"/>
<path d="M13.0501 13.3575C13.0501 14.3753 13.752 15.0422 15.5942 15.0422C17.4363 15.0422 18.1557 14.3753 18.1557 13.3575V4.30288C18.1557 4.12678 18.2256 4.03936 18.4192 4.03936H19.156C19.3484 4.03936 19.4021 4.12678 19.4021 4.30288V13.5498C19.4021 14.9536 18.5066 16.1113 15.5942 16.1113C12.6817 16.1113 11.805 14.9536 11.805 13.5498V4.30288C11.805 4.12678 11.8924 4.03936 12.0685 4.03936H12.8053C12.9802 4.03936 13.0514 4.12678 13.0514 4.30288V13.3562L13.0501 13.3575Z" fill="#FF3C12"/>
<path d="M30.4349 4.04061C30.611 4.04061 30.6984 4.11055 30.6984 4.30413V4.8474C30.6984 5.04099 30.611 5.11092 30.4349 5.11092H27.4001V15.7079C27.4001 15.884 27.3301 15.9714 27.154 15.9714H26.3997C26.2236 15.9714 26.1537 15.884 26.1537 15.7079V5.11092H23.1188C22.9427 5.11092 22.8728 5.04099 22.8728 4.8474V4.30413C22.8728 4.11055 22.9427 4.04061 23.1188 4.04061H30.4349Z" fill="#FF3C12"/>
<path d="M35.4493 9.12866H40.5548V4.30413C40.5548 4.12803 40.6248 4.04061 40.8009 4.04061H41.5552C41.7313 4.04061 41.8012 4.12803 41.8012 4.30413V15.7092C41.8012 15.8852 41.7313 15.9727 41.5552 15.9727H40.8009C40.626 15.9727 40.5548 15.8852 40.5548 15.7092V10.1827H35.4493V15.7092C35.4493 15.8852 35.3968 15.9727 35.2032 15.9727H34.4664C34.2915 15.9727 34.2204 15.8852 34.2204 15.7092V4.30288C34.2204 4.12678 34.2903 4.03936 34.4664 4.03936H35.2032C35.3968 4.03936 35.4493 4.12678 35.4493 4.30288V9.12866Z" fill="#FF3C12"/>
<path d="M46.7806 15.9714C46.6233 15.9714 46.5521 15.884 46.5521 15.7079V4.30288C46.5521 4.12678 46.622 4.03936 46.7981 4.03936H52.7816C52.9577 4.03936 53.0451 4.1093 53.0451 4.30288V4.84616C53.0451 5.03974 52.9577 5.10967 52.7816 5.10967H47.781V9.19735H52.4656C52.658 9.19735 52.7292 9.26729 52.7292 9.46087V9.96917C52.7292 10.1628 52.6592 10.2327 52.4656 10.2327H47.781V14.8999H52.9927C53.1675 14.8999 53.2562 14.9698 53.2562 15.1459V15.7079C53.2562 15.9015 53.1688 15.9714 52.9927 15.9714H46.7806Z" fill="#FF3C12"/>
<path d="M64.8136 15.7079C64.8136 15.884 64.7611 15.9714 64.5676 15.9714H63.9006C63.7608 15.9714 63.7071 15.9365 63.6546 15.849L59.0049 7.60249C58.8126 7.26904 58.5666 6.7957 58.408 6.44476V15.7092C58.408 15.8852 58.338 15.9727 58.1619 15.9727H57.495C57.3201 15.9727 57.249 15.8852 57.249 15.7092V4.30288C57.249 4.12678 57.3189 4.03936 57.495 4.03936H58.1619C58.2843 4.03936 58.3542 4.07433 58.3905 4.14427L63.1276 12.5132C63.2849 12.7942 63.5484 13.3375 63.6359 13.5485V4.30288C63.6359 4.12678 63.7233 4.03936 63.8994 4.03936H64.5663C64.7586 4.03936 64.8123 4.12678 64.8123 4.30288V15.7079H64.8136Z" fill="#FF3C12"/>
<path d="M75.9164 4.04061C76.0925 4.04061 76.1799 4.11055 76.1799 4.30413V4.8474C76.1799 5.04099 76.0925 5.11092 75.9164 5.11092H72.8815V15.7079C72.8815 15.884 72.8116 15.9714 72.6355 15.9714H71.8812C71.7051 15.9714 71.6351 15.884 71.6351 15.7079V5.11092H68.6003C68.4242 5.11092 68.3542 5.04099 68.3542 4.8474V4.30413C68.3542 4.11055 68.4242 4.04061 68.6003 4.04061H75.9164Z" fill="#FF3C12"/>
<path d="M80.9307 15.7079C80.9307 15.884 80.8783 15.9714 80.6847 15.9714H79.9479C79.773 15.9714 79.7018 15.884 79.7018 15.7079V4.30288C79.7018 4.12678 79.7718 4.03936 79.9479 4.03936H80.6847C80.8783 4.03936 80.9307 4.12678 80.9307 4.30288V15.7079Z" fill="#FF3C12"/>
<path d="M117.592 15.9712C117.435 15.9712 117.364 15.8838 117.364 15.7077V4.3027C117.364 4.1266 117.434 4.03918 117.61 4.03918H123.593C123.77 4.03918 123.857 4.10912 123.857 4.3027V4.84597C123.857 5.03955 123.77 5.10949 123.593 5.10949H118.593V9.19717H123.277C123.47 9.19717 123.541 9.26711 123.541 9.46069V9.96899C123.541 10.1626 123.471 10.2325 123.277 10.2325H118.593V14.8997H123.804C123.979 14.8997 124.068 14.9696 124.068 15.1457V15.7077C124.068 15.9013 123.981 15.9712 123.804 15.9712H117.592Z" fill="black"/>
<path d="M107.253 4.04034C107.49 4.38254 107.707 4.73973 107.903 5.11065H109.423V15.7076C109.423 15.8837 109.493 15.9712 109.669 15.9712H110.424C110.598 15.9712 110.67 15.8837 110.67 15.7076V5.11065H113.705C113.881 5.11065 113.968 5.04072 113.968 4.84714V4.30386C113.968 4.11028 113.881 4.04034 113.705 4.04034H107.253Z" fill="black"/>
<path d="M100.898 4.04034C101.073 4.04034 101.162 4.12777 101.214 4.30386L104.724 15.7089C104.776 15.885 104.706 15.9724 104.513 15.9724H103.741C103.565 15.9724 103.495 15.885 103.442 15.7089L102.477 12.5854H98.4592L97.5112 15.7089C97.4588 15.885 97.3888 15.9724 97.2127 15.9724H96.4934C96.3173 15.9724 96.2473 15.885 96.2998 15.7089L99.7917 4.30386C99.8442 4.12777 99.9491 4.04034 100.125 4.04034H100.898ZM100.933 7.47858C100.793 7.02273 100.565 5.93493 100.477 5.32047C100.372 6.02236 100.179 6.98776 100.039 7.44361L98.7402 11.585H102.197L100.933 7.47983V7.47858Z" fill="black"/>
<path d="M92.613 10.2341C92.8053 10.2341 92.8765 10.3041 92.8765 10.4802V13.55C92.8765 14.9537 92.0697 16.1115 89.1748 16.1115C86.2798 16.1115 85.473 14.9537 85.473 13.55V6.46118C85.473 5.05741 86.2798 3.89967 89.1748 3.89967C92.0697 3.89967 92.8765 5.05741 92.8765 6.46118V7.30294C92.8765 7.47904 92.8066 7.54898 92.6305 7.54898H91.9286C91.7363 7.54898 91.6651 7.47904 91.6651 7.30294V6.65351C91.6651 5.63565 91.0506 4.96873 89.191 4.96873C87.3314 4.96873 86.7169 5.63565 86.7169 6.65351V13.3564C86.7169 14.3743 87.3314 15.0412 89.191 15.0412C91.0506 15.0412 91.6651 14.3917 91.6651 13.3739V11.3032H89.3134C89.1373 11.3032 89.0674 11.2158 89.0674 11.0397V10.4777C89.0674 10.3016 89.1373 10.2316 89.3134 10.2316H92.6118L92.613 10.2341Z" fill="black"/>
<path d="M98.6152 0.000976562C95.6329 0.000976562 92.8341 1.32607 90.9432 3.58784C91.1705 3.64279 91.3928 3.71148 91.6026 3.79765C93.3686 1.80065 95.9114 0.637919 98.6152 0.637919C103.778 0.637919 107.978 4.83799 107.978 10.001C107.978 15.164 103.778 19.364 98.6152 19.364C95.9176 19.364 93.3761 18.2038 91.6089 16.2118C91.3978 16.298 91.1768 16.3667 90.9494 16.4229C92.8415 18.6796 95.6391 20.001 98.6152 20.001C104.129 20.001 108.615 15.5149 108.615 10.001C108.615 4.48705 104.129 0.000976562 98.6152 0.000976562Z" fill="#FF3C12"/>
</svg>
